HIERARCHY
ROOT Hips
{
	OFFSET 0.000000 0.000000 0.000000
	CHANNELS 6 Xposition Yposition Zposition Xrotation Yrotation Zrotation
	JOINT LeftUpLeg_virtual
	{
		OFFSET 0.000000 0.000000 0.000000
		CHANNELS 3 Xrotation Yrotation Zrotation
		JOINT LeftUpLeg
		{
			OFFSET 10.205400 -3.823500 0.155100
			CHANNELS 3 Xrotation Yrotation Zrotation
			JOINT LeftLeg
			{
				OFFSET 0.708757 -12.982077 0.567790
				CHANNELS 3 Xrotation Yrotation Zrotation
				JOINT LeftFoot
				{
					OFFSET -0.708756 -10.717838 -2.184338
					CHANNELS 3 Xrotation Yrotation Zrotation
					JOINT LeftToeBase
					{
						OFFSET 0.108149 -7.191104 7.560241
						CHANNELS 3 Xrotation Yrotation Zrotation
						JOINT LeftToe_End
						{
							OFFSET 0.070230 0.081724 4.490308
							CHANNELS 3 Xrotation Yrotation Zrotation
							End Site
							{
								OFFSET 0 0 0
							}
						}
					}
				}
			}
		}
	}
	JOINT RightUpLeg_virtual
	{
		OFFSET 0.000000 0.000000 0.000000
		CHANNELS 3 Xrotation Yrotation Zrotation
		JOINT RightUpLeg
		{
			OFFSET -10.205400 -3.823500 0.005500
			CHANNELS 3 Xrotation Yrotation Zrotation
			JOINT RightLeg
			{
				OFFSET -0.708756 -12.982134 0.610632
				CHANNELS 3 Xrotation Yrotation Zrotation
				JOINT RightFoot
				{
					OFFSET 0.708754 -10.717769 -1.945823
					CHANNELS 3 Xrotation Yrotation Zrotation
					JOINT RightToeBase
					{
						OFFSET -0.108140 -7.191069 7.372968
						CHANNELS 3 Xrotation Yrotation Zrotation
						JOINT RightToe_End
						{
							OFFSET -0.070227 0.081735 4.479403
							CHANNELS 3 Xrotation Yrotation Zrotation
							End Site
							{
								OFFSET 0 0 0
							}
						}
					}
				}
			}
		}
	}
	JOINT Spine_virtual
	{
		OFFSET 0.000000 0.000000 0.000000
		CHANNELS 3 Xrotation Yrotation Zrotation
		JOINT Spine
		{
			OFFSET 0.000000 6.876099 0.125700
			CHANNELS 3 Xrotation Yrotation Zrotation
			JOINT Spine1
			{
				OFFSET 0.000000 5.730043 0.104720
				CHANNELS 3 Xrotation Yrotation Zrotation
				JOINT Spine1_split
				{
					OFFSET 0.000000 5.730043 0.104720
					CHANNELS 3 Xrotation Yrotation Zrotation
					JOINT Spine2
					{
						OFFSET 0.000000 5.730043 0.104720
						CHANNELS 3 Xrotation Yrotation Zrotation
						JOINT Neck_virtual
						{
							OFFSET 0.000000 0.000000 0.000000
							CHANNELS 3 Xrotation Yrotation Zrotation
							JOINT Neck
							{
								OFFSET 0.000000 10.314075 0.188496
								CHANNELS 3 Xrotation Yrotation Zrotation
								JOINT Head
								{
									OFFSET 0.000000 7.643700 -2.377400
									CHANNELS 3 Xrotation Yrotation Zrotation
									JOINT HeadTop_End
									{
										OFFSET 0.000000 43.788605 -13.619600
										CHANNELS 3 Xrotation Yrotation Zrotation
										End Site
										{
											OFFSET 0 0 0
										}
									}
								}
							}
						}
						JOINT LeftShoulder_virtual
						{
							OFFSET 0.000000 0.000000 0.000000
							CHANNELS 3 Xrotation Yrotation Zrotation
							JOINT LeftShoulder
							{
								OFFSET 2.196100 4.412489 0.087492
								CHANNELS 3 Xrotation Yrotation Zrotation
								JOINT LeftShoulder_split
								{
									OFFSET 2.196100 4.412489 0.087492
									CHANNELS 3 Xrotation Yrotation Zrotation
									JOINT LeftArm
									{
										OFFSET 8.771219 -2.981674 -0.026999
										CHANNELS 3 Xrotation Yrotation Zrotation
										JOINT LeftForeArm
										{
											OFFSET 8.512804 0.000000 -0.000000
											CHANNELS 3 Xrotation Yrotation Zrotation
											JOINT LeftHand
											{
												OFFSET 18.484802 0.000000 -0.000000
												CHANNELS 3 Xrotation Yrotation Zrotation
												End Site
												{
													OFFSET 0 0 0
												}
											}
										}
									}
								}
							}
						}
						JOINT RightShoulder_virtual
						{
							OFFSET 0.000000 0.000000 0.000000
							CHANNELS 3 Xrotation Yrotation Zrotation
							JOINT RightShoulder
							{
								OFFSET -2.196100 4.412496 0.070690
								CHANNELS 3 Xrotation Yrotation Zrotation
								JOINT RightShoulder_split
								{
									OFFSET -2.196100 4.412496 0.070690
									CHANNELS 3 Xrotation Yrotation Zrotation
									JOINT RightArm
									{
										OFFSET -8.771282 -2.981682 -0.094208
										CHANNELS 3 Xrotation Yrotation Zrotation
										JOINT RightForeArm
										{
											OFFSET -8.494598 0.000000 0.000000
											CHANNELS 3 Xrotation Yrotation Zrotation
											JOINT RightHand
											{
												OFFSET -18.483803 0.000000 0.000001
												CHANNELS 3 Xrotation Yrotation Zrotation
												End Site
												{
													OFFSET 0 0 0
												}
											}
										}
									}
								}
							}
						}
					}
				}
			}
		}
	}
}
MOTION
Frames: 10
Frame Time: 0.03333333
0.215519 36.216698 -1.930836 0.000000 0.000000 0.000000 -86.331747 -4.119712 -0.498105 9.202739 19.097933 19.535104 0.911781 2.869562 3.161715 12.503744 30.436505 -31.718077 -3.766575 -0.289882 0.543000 0.000000 0.000000 0.000000 -87.966218 0.005859 2.140137 19.223308 -21.017920 -12.026160 -3.172561 -1.433689 -8.706977 18.904968 -35.609372 31.137948 -10.169666 1.438948 -2.131491 0.000000 0.000000 0.000000 -86.832646 -5.841325 -2.992990 4.550866 1.582118 -0.008896 16.565855 4.076333 -1.793018 0.502460 -0.283707 -0.084873 0.000000 0.000000 0.000000 14.921211 3.782745 -2.304168 -2.360087 1.404365 -4.227471 21.238033 4.872292 -8.842528 0.000000 0.000000 0.000000 16.814478 3.366550 -1.659516 -0.426637 7.071145 1.856930 -0.320778 -0.985185 -3.084799 16.010192 -51.446785 -39.395380 -0.499428 -80.945767 -0.163625 0.000000 0.000000 0.000000 15.063936 3.573662 -2.039277 0.845987 2.135078 14.676719 1.216052 2.177128 1.815463 -34.225029 34.790398 62.320449 178.548371 53.677678 -179.937277 0.000000 0.000000 0.000000 
0.205909 36.157135 -1.981216 0.000000 0.000000 0.000000 -86.244334 -4.520081 -0.831429 9.249538 18.757639 19.749509 0.771641 3.207480 3.252843 12.632303 30.657304 -31.885058 -3.810102 -0.301887 0.266032 0.000000 0.000000 0.000000 -87.945249 -0.625682 1.581600 18.687876 -21.161116 -11.767671 -3.430218 -1.284544 -8.469001 19.686198 -35.067065 31.415093 -10.600544 1.415106 -1.972081 0.000000 0.000000 0.000000 -86.854318 -6.255931 -3.146229 3.923236 1.419770 -0.012446 16.280840 3.865147 -1.677935 0.621488 -0.105003 -0.140841 0.000000 0.000000 0.000000 14.712811 3.626864 -2.212375 -1.552564 1.233789 -4.082748 21.796326 5.022229 -9.067957 0.000000 0.000000 0.000000 16.620867 3.155219 -1.565594 -0.345406 6.453338 1.570892 -0.426286 -1.113779 -2.891942 17.102498 -50.438819 -39.641274 -0.565224 -81.173137 -0.359651 0.000000 0.000000 0.000000 14.953393 3.414953 -1.889031 0.895021 1.546886 14.884691 0.812787 2.328760 1.940977 -34.565439 35.859303 62.173450 178.455727 54.862169 -179.851722 0.000000 0.000000 0.000000 
0.206541 36.098564 -1.972633 0.000000 0.000000 0.000000 -85.958976 -4.905135 -1.302047 9.157877 18.400391 19.923573 0.515984 3.567742 3.138819 13.393456 30.799071 -31.826209 -3.996169 -0.345664 0.085421 0.000000 0.000000 0.000000 -87.608125 -1.144909 0.944968 18.096472 -21.240370 -11.632540 -3.817083 -1.113774 -8.134889 21.272730 -34.316134 32.216172 -11.282981 1.367586 -1.782327 0.000000 0.000000 0.000000 -86.576650 -6.542295 -3.351840 3.220819 1.215855 0.052119 15.829771 3.509163 -1.507186 0.733743 0.130143 -0.150097 0.000000 0.000000 0.000000 14.269450 3.324787 -2.038506 -0.721069 1.045350 -3.831720 22.340924 4.889401 -9.171784 0.000000 0.000000 0.000000 16.231521 2.795022 -1.394940 -0.242809 5.791808 1.416868 -0.542427 -1.071552 -2.731288 18.179592 -49.340522 -40.461337 -0.708174 -81.561201 -0.685498 0.000000 0.000000 0.000000 14.677038 3.112307 -1.690397 0.917162 1.023602 14.961637 0.444462 2.607161 2.133352 -33.850274 37.091158 61.329751 178.354708 55.468393 -179.699777 0.000000 0.000000 0.000000 
0.217305 36.039837 -1.937965 0.000000 0.000000 0.000000 -85.486491 -5.266853 -1.889165 8.953275 18.110938 20.019564 0.150709 3.924079 2.838671 14.626312 30.856199 -31.538272 -4.131315 -0.409206 0.007146 0.000000 0.000000 0.000000 -87.066873 -1.551928 0.267040 17.595814 -21.257704 -11.520008 -4.378855 -1.023667 -7.786498 22.977935 -33.698408 33.066664 -11.905091 1.308093 -1.575094 0.000000 0.000000 0.000000 -86.081523 -6.711891 -3.651500 2.542060 0.984000 0.192518 15.199128 3.032597 -1.280538 0.825758 0.355804 -0.207538 0.000000 0.000000 0.000000 13.593619 2.900080 -1.792417 -0.023912 0.853724 -3.500907 22.725264 4.605750 -9.234533 0.000000 0.000000 0.000000 15.618220 2.321732 -1.162598 -0.127118 5.160402 1.348282 -0.645442 -1.012142 -2.640871 19.349393 -48.060561 -41.696416 -1.174272 -81.955406 -1.358142 0.000000 0.000000 0.000000 14.208987 2.692717 -1.451591 0.891817 0.573547 14.879417 0.165175 2.743081 2.344574 -32.131617 38.257583 59.692793 178.296638 55.351204 -179.525935 0.000000 0.000000 0.000000 
0.226261 35.989128 -1.854111 0.000000 0.000000 0.000000 -84.975688 -5.558711 -2.489218 8.715099 17.925703 20.011047 -0.273846 4.244495 2.415948 16.048689 30.849765 -31.152151 -4.199769 -0.475684 0.033429 0.000000 0.000000 0.000000 -86.423306 -1.848101 -0.364408 17.261572 -21.235891 -11.366663 -5.046543 -1.090648 -7.516078 24.248951 -33.551392 33.549845 -12.359129 1.255148 -1.390907 0.000000 0.000000 0.000000 -85.455714 -6.782321 -4.012694 1.990982 0.751009 0.389777 14.402461 2.489782 -1.014717 0.919712 0.710004 -0.277592 0.000000 0.000000 0.000000 12.722998 2.399695 -1.496544 0.420017 0.682892 -3.174483 22.884450 4.268817 -9.348979 0.000000 0.000000 0.000000 14.797938 1.795568 -0.901626 -0.021649 4.557183 1.324205 -0.892535 -0.958018 -2.658979 20.645312 -46.565959 -43.130794 -2.147128 -82.180413 -2.500054 0.000000 0.000000 0.000000 13.534776 2.219950 -1.188490 0.783737 0.199773 14.729267 0.051579 2.649212 2.497855 -29.714957 39.106993 57.455162 178.326445 54.659258 -179.382324 0.000000 0.000000 0.000000 
0.239511 35.965336 -1.783827 0.000000 0.000000 0.000000 -84.486510 -5.794224 -3.018153 8.535935 17.822318 19.897897 -0.682516 4.499232 1.970829 17.470427 30.798457 -30.867278 -4.290391 -0.528842 0.162902 0.000000 0.000000 0.000000 -85.821675 -2.128130 -0.949786 17.098726 -21.238483 -11.171269 -5.657015 -1.308690 -7.337047 25.019671 -33.858013 33.692374 -12.710950 1.227385 -1.265351 0.000000 0.000000 0.000000 -84.835669 -6.840355 -4.417301 1.620407 0.534702 0.597477 13.464737 1.937450 -0.748172 1.002139 1.001751 -0.410828 0.000000 0.000000 0.000000 11.722349 1.884455 -1.188272 0.555508 0.572994 -2.908621 22.795891 3.999467 -9.547637 0.000000 0.000000 0.000000 13.810124 1.281178 -0.647224 0.057715 3.999951 1.267679 -1.178264 -0.991602 -2.772331 21.948381 -44.903077 -44.564300 -3.520464 -82.201518 -3.963846 0.000000 0.000000 0.000000 12.702443 1.754469 -0.929840 0.577859 -0.094826 14.587809 0.112719 2.379416 2.787972 -26.954689 39.545996 54.994989 178.413653 53.836637 -179.257058 0.000000 0.000000 0.000000 
0.241906 35.964199 -1.719793 0.000000 0.000000 0.000000 -84.119777 -5.984094 -3.417146 8.518180 17.824359 19.683656 -0.977970 4.696244 1.594215 18.684886 30.705641 -30.822782 -4.469000 -0.554455 0.344438 0.000000 0.000000 0.000000 -85.412854 -2.384146 -1.392337 17.050427 -21.283428 -11.030667 -6.082958 -1.489603 -7.203598 25.543038 -34.300431 33.823653 -13.132797 1.231352 -1.220573 0.000000 0.000000 0.000000 -84.343964 -6.926775 -4.795676 1.451285 0.340620 0.748174 12.408849 1.424477 -0.516060 1.116274 1.316910 -0.514532 0.000000 0.000000 0.000000 10.661214 1.415896 -0.910522 0.428695 0.539953 -2.755783 22.531889 3.878086 -9.819740 0.000000 0.000000 0.000000 12.701303 0.840253 -0.430272 0.102347 3.544074 1.109024 -1.456522 -1.050268 -2.908353 23.129338 -43.210137 -45.825180 -4.732364 -82.021665 -5.190218 0.000000 0.000000 0.000000 11.740683 1.347445 -0.716323 0.287374 -0.307985 14.497910 0.327881 2.135228 3.156279 -24.219417 39.548875 52.772548 178.519042 53.259527 -179.135221 0.000000 0.000000 0.000000 
0.231826 35.990417 -1.685537 0.000000 0.000000 0.000000 -83.930287 -6.144920 -3.661830 8.651614 17.977736 19.432935 -1.161759 4.867016 1.353712 19.469574 30.633576 -30.925266 -4.726432 -0.550201 0.536006 0.000000 0.000000 0.000000 -85.222244 -2.642719 -1.713038 17.068479 -21.393916 -10.963967 -6.237824 -1.537511 -7.079244 26.036464 -34.626976 34.166307 -13.629663 1.257674 -1.244423 0.000000 0.000000 0.000000 -84.051270 -7.079682 -5.115432 1.449785 0.166609 0.811967 11.248275 0.986004 -0.341731 1.094393 1.591834 -0.617576 0.000000 0.000000 0.000000 9.556953 1.023126 -0.686377 0.144263 0.572926 -2.700584 22.207848 3.899034 -10.075403 0.000000 0.000000 0.000000 11.518537 0.497446 -0.261228 0.097718 3.214834 0.890396 -1.640583 -1.127987 -3.058634 24.057747 -41.643476 -46.868236 -5.434980 -81.729415 -5.835625 0.000000 0.000000 0.000000 10.694802 1.026303 -0.570193 -0.074029 -0.433031 14.467334 0.680754 2.037363 3.430213 -21.730252 39.223871 51.063184 178.620580 53.093789 -179.026512 0.000000 0.000000 0.000000 
0.205757 36.031368 -1.690201 0.000000 0.000000 0.000000 -83.894756 -6.297126 -3.776862 8.918951 18.329911 19.194792 -1.269798 5.046925 1.281245 19.688857 30.608448 -31.070667 -4.935174 -0.518745 0.674661 0.000000 0.000000 0.000000 -85.238363 -2.866934 -1.890680 17.202902 -21.590943 -10.907501 -6.217750 -1.474036 -6.956348 26.566026 -34.782448 34.648129 -14.011383 1.284832 -1.280012 0.000000 0.000000 0.000000 -84.004961 -7.284287 -5.360702 1.546737 -0.001165 0.777463 10.012578 0.628573 -0.231706 1.015131 1.752741 -0.616103 0.000000 0.000000 0.000000 8.435964 0.719297 -0.523695 -0.201436 0.638612 -2.688120 21.889800 4.014411 -10.187418 0.000000 0.000000 0.000000 10.293856 0.251790 -0.138634 0.052009 3.063146 0.635267 -1.683791 -1.202078 -3.231229 24.715267 -40.313170 -47.734235 -5.430581 -81.454220 -5.743132 0.000000 0.000000 0.000000 9.614664 0.779486 -0.494085 -0.469995 -0.449634 14.430371 1.069197 2.040756 3.588633 -19.439852 38.735864 49.861662 178.692502 53.391616 -178.934414 0.000000 0.000000 0.000000 
0.162050 36.065239 -1.686707 0.000000 0.000000 0.000000 -84.026558 -6.407073 -3.789728 9.252075 18.886330 19.024196 -1.338826 5.207418 1.336793 19.360683 30.589883 -31.233605 -5.049217 -0.465061 0.755655 0.000000 0.000000 0.000000 -85.420566 -2.997175 -1.931646 17.455742 -21.856228 -10.793788 -6.159132 -1.346226 -6.833744 26.956803 -34.864748 35.002749 -14.086656 1.307276 -1.281782 0.000000 0.000000 0.000000 -84.163565 -7.479401 -5.516827 1.713743 -0.179816 0.668805 8.731546 0.342395 -0.170508 0.859356 1.859387 -0.513611 0.000000 0.000000 0.000000 7.297051 0.481417 -0.407963 -0.553949 0.720475 -2.678021 21.609153 4.175872 -10.059033 0.000000 0.000000 0.000000 9.062736 0.075898 -0.049222 -0.020524 3.080522 0.395588 -1.712594 -1.173188 -3.469627 25.176337 -39.194033 -48.547844 -4.762396 -81.275973 -4.996934 0.000000 0.000000 0.000000 8.506507 0.589703 -0.466710 -0.864604 -0.370676 14.347902 1.489583 2.121684 3.507900 -17.159588 38.089581 48.968334 178.732090 54.018942 -178.877231 0.000000 0.000000 0.000000 
